<svg enable-background="new 0 0 82 82" viewBox="0 0 82 82" xmlns="http://www.w3.org/2000/svg"><circle clip-rule="evenodd" cx="41" cy="41" fill="#fff" fill-rule="evenodd" r="40" stroke="#d8d8d8" stroke-width="1.5"/><g enable-background="new"><path d="m17.3 46.7c.1-.6.1-2.1.1-2.9v-2.7c0-.8 0-2.3-.1-2.9.4 0 1.8-.1 2.3-.1 2.1 0 3 1.2 3 2.2 0 .9-.6 1.5-1.3 1.8 1.1.4 1.7 1.1 1.7 2.1 0 1.3-1.1 2.5-3.1 2.5zm2.1-4.9c1.3 0 2-.5 2-1.3s-.7-1.3-1.9-1.3c-.5 0-.7 0-1 0v.7 1.2.7zm.4 3.9c1.2 0 2-.5 2-1.5 0-.8-.7-1.4-2.2-1.4-.4 0-.7 0-1 0v2.2.6c.3.1.8.1 1.2.1z"/><path d="m24.8 45.3c0-1.1 1-1.9 2.9-1.9h.5v-.2c0-.8-.3-1.2-1.2-1.2-.6 0-1.1.2-1.5.5l-.3-1c.6-.3 1.2-.5 2-.5 1.4 0 2.1.9 2.1 2.1l-.1 2.4c0 .3.1.5.3.5.1 0 .3 0 .5-.1l-.1.8c-.2.1-.4.2-.7.2-.5 0-.9-.3-.9-.9-.3.6-1 1-1.7 1-1.1-.1-1.8-.8-1.8-1.7zm3.3-.6v-.5c-.2 0-.3 0-.5 0-1.3 0-1.8.5-1.8 1.1 0 .5.3.8.9.8.8-.1 1.4-.7 1.4-1.4z"/><path d="m35.9 42.5c-.5-.4-1-.5-1.5-.5-1.1 0-1.8.8-1.8 1.9 0 1.3.9 2 1.9 2 .7 0 1.2-.2 1.8-.7v1.1c-.6.4-1.1.5-1.8.5-1.6 0-2.8-1.2-2.8-2.8 0-1.7 1.2-3.1 2.9-3.1.7 0 1.3.2 1.8.5z"/><path d="m39.5 44v1.6 1.2h-1.2c.1-.5.1-1.3.1-2v-4.6c0-.7 0-1.5-.1-2 .4 0 .9-.1 1.2-.2v1.3 4.3c.5-.7 1.7-2 2.1-2.5h1.4l-2.4 2.6.5.6c.7.8 1.5 1.8 2.1 2.4l-1.2.2z"/><path d="m54.6 39.3c-.9 0-1.7 0-2.8 0v.8 5 1.7h-1.3c.1-.6.1-2.1.1-2.9v-2.6c0-.5 0-1.3 0-2-1.1 0-1.9 0-2.8 0 0-.3 0-.7 0-1.1 1.1 0 2.1.1 3.4.1s2.4 0 3.5-.1c-.1.4-.1.7-.1 1.1z"/><path d="m57.8 46.9c-1.6 0-2.7-1.3-2.7-2.8 0-1.7 1.1-3.1 2.8-3.1 1.6 0 2.7 1.3 2.7 2.8 0 1.8-1.1 3.1-2.8 3.1zm.1-4.9c-1 0-1.7.9-1.7 1.9 0 1.3.6 2 1.6 2 1.1 0 1.7-.9 1.7-2 0-1.2-.7-1.9-1.6-1.9z"/></g><g enable-background="new"><path d="m35.7 53.3c-.9 0-1.7 0-2.8 0v.8 5 1.7h-1.3c.1-.6.1-2.1.1-2.9v-2.6c0-.5 0-1.3 0-2-1.1 0-1.9 0-2.8 0 0-.3 0-.7 0-1.1 1.1 0 2.1.1 3.4.1s2.4 0 3.5-.1c-.1.4-.1.7-.1 1.1z"/><path d="m38.9 60.9c-1.6 0-2.7-1.3-2.7-2.8 0-1.7 1.1-3.1 2.8-3.1 1.6 0 2.7 1.3 2.7 2.8 0 1.8-1.1 3.1-2.8 3.1zm.1-4.9c-1 0-1.7.9-1.7 1.9 0 1.3.6 2 1.6 2 1.1 0 1.7-.9 1.7-2 0-1.2-.7-1.9-1.6-1.9z"/></g><path d="m46.4 60.9c-.6 0-1.1-.2-1.4-.5v1.6 1.1l-1.2.1c.1-.5.1-1.3.1-2v-4c0-.7 0-1.5-.1-2h1.1v.7c.4-.5 1.1-.9 1.8-.9 1.5 0 2.4 1.2 2.4 2.7 0 2-1.4 3.2-2.7 3.2zm0-4.9c-.6 0-1.1.3-1.4.8v2.6c.3.3.7.6 1.4.6 1 0 1.7-1 1.7-2.1-.1-1.4-.8-1.9-1.7-1.9z"/><path d="m51.5 26.3-9.8-9.8c-.4-.4-1-.4-1.4 0l-9.8 9.8c-.4.4-.4 1 0 1.4.2.2.5.3.7.3s.5-.1.7-.3l9.1-9.1 9.1 9.1c.2.2.5.3.7.3s.5-.1.7-.3c.4-.4.4-1 0-1.4z"/></svg>