<svg width="24" height="24" viewBox="0 0 24 24" fill="none" xmlns="http://www.w3.org/2000/svg">
<path fill-rule="evenodd" clip-rule="evenodd" d="M21.4763 2H2.52373C1.13227 2 0 3.27834 0 4.84932V19.1507C0 20.722 1.13227 22 2.52373 22H21.4763C22.868 22 24 20.722 24 19.1507V4.84932C24 3.27834 22.868 2 21.4763 2ZM2.52373 3.80641H21.4763C21.9856 3.80641 22.4 4.27427 22.4 4.84932V6.3393L12.3179 11.5972C12.1157 11.7025 11.8837 11.7022 11.6816 11.5972L1.6 6.3393V4.84932C1.6 4.27427 2.0144 3.80641 2.52373 3.80641ZM1.6 19.1507C1.6 19.7257 2.0144 20.1936 2.52373 20.1936H21.4763C21.9856 20.1936 22.4 19.7257 22.4 19.1507V8.32907L12.9891 13.2371C12.6749 13.4009 12.3376 13.4828 12 13.4828C11.6624 13.4828 11.3251 13.4012 11.0107 13.2371L1.6 8.32937V19.1507Z" fill="black"/>
</svg>
