<svg width="24" height="24" viewBox="0 0 24 24" fill="none" xmlns="http://www.w3.org/2000/svg">
<path fill-rule="evenodd" clip-rule="evenodd" d="M22.6754 0H1.32457C0.592954 0 0 0.592952 0 1.32457V22.6753C0 23.4069 0.592954 24 1.32457 24H12.8192V14.7059H9.69149V11.0838H12.8192V8.41266C12.8192 5.31283 14.7124 3.62489 17.4778 3.62489C18.8024 3.62489 19.9409 3.72344 20.2726 3.7675V7.00707L18.3547 7.00797C16.8508 7.00797 16.5596 7.72259 16.5596 8.77127V11.0838H20.1463L19.6794 14.7059H16.5596V24H22.6754C23.407 24 24 23.4069 24 22.6753V1.32457C24 0.592952 23.407 0 22.6754 0Z" fill="black"/>
<mask id="mask0_0_1234" style="mask-type:alpha" maskUnits="userSpaceOnUse" x="0" y="0" width="24" height="24">
<path fill-rule="evenodd" clip-rule="evenodd" d="M22.6754 0H1.32457C0.592954 0 0 0.592952 0 1.32457V22.6753C0 23.4069 0.592954 24 1.32457 24H12.8192V14.7059H9.69149V11.0838H12.8192V8.41266C12.8192 5.31283 14.7124 3.62489 17.4778 3.62489C18.8024 3.62489 19.9409 3.72344 20.2726 3.7675V7.00707L18.3547 7.00797C16.8508 7.00797 16.5596 7.72259 16.5596 8.77127V11.0838H20.1463L19.6794 14.7059H16.5596V24H22.6754C23.407 24 24 23.4069 24 22.6753V1.32457C24 0.592952 23.407 0 22.6754 0Z" fill="white"/>
</mask>
<g mask="url(#mask0_0_1234)">
</g>
</svg>
