<svg width="70" height="51" viewBox="0 0 70 51" fill="none" xmlns="http://www.w3.org/2000/svg">
<path id="Fill 4" fill-rule="evenodd" clip-rule="evenodd" d="M0 38.165C0 45.9332 4.66712 51 11.6668 51C18.3331 51 23.0002 46.2711 24.0007 39.5167C20.3341 37.4892 16.5007 35.6326 16.5007 30.0589C16.5007 23.4735 20.6676 15.8743 34 6.58547L30.5001 0C11.3333 12.497 0 25.668 0 38.165ZM36 38.165C36 45.9332 40.6671 51 47.6668 51C54.3331 51 59.0002 46.2711 60.0007 39.5167C56.3341 37.4892 52.5007 35.6326 52.5007 30.0589C52.5007 23.4735 56.6657 15.8743 70 6.58547L66.5001 0C47.3333 12.497 36 25.668 36 38.165Z" fill="#E76ECE"/>
</svg>
