<svg width="24" height="24" viewBox="0 0 24 24" fill="none" xmlns="http://www.w3.org/2000/svg">
<path fill-rule="evenodd" clip-rule="evenodd" d="M24 4.38462C23.1028 4.76923 22.2056 5.07692 21.1589 5.15385C22.2056 4.53846 22.9533 3.53846 23.3271 2.38462C22.3551 3 21.3084 3.38462 20.1869 3.61538C19.2897 2.61538 18.0187 2 16.6729 2C13.9813 2 11.7383 4.23077 11.7383 7.07692C11.7383 7.46154 11.8131 7.84615 11.8879 8.23077C7.7757 8 4.18692 6 1.71963 2.92308C1.27103 3.69231 1.04673 4.53846 1.04673 5.46154C1.04673 7.23077 1.94393 8.76923 3.21495 9.69231C2.39252 9.69231 1.64486 9.46154 0.971963 9.07692V9.15385C0.971963 11.6154 2.69159 13.6154 4.93458 14.0769C4.48598 14.1538 4.11215 14.2308 3.66355 14.2308C3.36449 14.2308 3.06542 14.2308 2.76636 14.1538C3.36449 16.1538 5.23364 17.6154 7.3271 17.6923C5.68224 19.0769 3.51402 19.8462 1.19626 19.8462C0.82243 19.8462 0.373832 19.8462 0 19.7692C2.24299 21.1538 4.85981 22 7.62617 22C16.6729 22 21.6075 14.3077 21.6075 7.61538V7C22.5047 6.23077 23.3271 5.38462 24 4.38462Z" fill="#E76ECE"/>
</svg>
